GIL04_fast2_RRA_states
nRows=7
nColumns=47

# SIMM Motion File Header:
name GIL04_fast2_RRA_states
datacolumns 47
datarows 7
otherdata 1
range 0.56733000000000033000 0.57033000000000034000
endheader
time	pelvis_tx	pelvis_ty	pelvis_tz	pelvis_tilt	pelvis_list	pelvis_rotation	hip_flexion_r	hip_adduction_r	hip_rotation_r	knee_angle_r	ankle_angle_r	subtalar_angle_r	mtp_angle_r	hip_flexion_l	hip_adduction_l	hip_rotation_l	knee_angle_l	ankle_angle_l	subtalar_angle_l	mtp_angle_l	lumbar_extension	lumbar_bending	lumbar_rotation	pelvis_tx_u	pelvis_ty_u	pelvis_tz_u	pelvis_tilt_u	pelvis_list_u	pelvis_rotation_u	hip_flexion_r_u	hip_adduction_r_u	hip_rotation_r_u	knee_angle_r_u	ankle_angle_r_u	subtalar_angle_r_u	mtp_angle_r_u	hip_flexion_l_u	hip_adduction_l_u	hip_rotation_l_u	knee_angle_l_u	ankle_angle_l_u	subtalar_angle_l_u	mtp_angle_l_u	lumbar_extension_u	lumbar_bending_u	lumbar_rotation_u
      0.56733000000000033000	      1.81406845211258320000	      0.70078578706970052000	     -0.18330479533386729000	     -3.83220911293196890000	      2.57017684810059380000	     -2.06527569170793290000	    -21.92290187555385800000	     -0.72500501910951776000	      0.51860259052735114000	    -15.74841182897605800000	     -8.06227284503534670000	     -0.00000000000014711782	     -0.00000000000030017139	     34.68362354900662600000	      2.73945757747977850000	     -7.23165922638408350000	    -16.80198885487570600000	     -8.44466509633905100000	     -0.00000000000001448576	     -0.00000000000000745190	     -1.67498725881742680000	     -7.08297330054040850000	     10.41468729281264100000	      1.60951770528662540000	      0.10882660430075233000	     -0.23031025385235809000	     -3.72288161185205800000	     61.31856772061543400000	     59.72977003689172900000	     69.55555620043442400000	    -79.70437331021075500000	    -64.90887739241195200000	   -261.78518174110826000000	   -359.63244241303317000000	     -0.00000000000042504358	     -0.00000000000101209122	    -35.26128448414073100000	    125.64326805835846000000	     90.31871483418608200000	   -150.81737825263195000000	    -24.32811336376716200000	      0.00000000000001186440	     -0.00000000000025976817	     22.71637848643670700000	    -71.89776812153235100000	    -55.82921559075366200000
      0.56783000000000028000	      1.81487292345885320000	      0.70084054606307644000	     -0.18342011356847160000	     -3.83400633347104100000	      2.60084264263015050000	     -2.03546429917010840000	    -21.88787024458448700000	     -0.76495119401822409000	      0.48635437661889447000	    -15.87966572260133800000	     -8.24225100599593930000	     -0.00000000000014732929	     -0.00000000000030068281	     34.66580106126014000000	      2.80230859676692430000	     -7.18638401150326000000	    -16.87724643656776300000	     -8.45635566544825320000	     -0.00000000000001447162	     -0.00000000000000759358	     -1.66377403855097360000	     -7.11885140803445800000	     10.38674376461286100000	      1.60836486658360570000	      0.11020728442667971000	     -0.23095918045532945000	     -3.46675874209742930000	     61.34335121495698200000	     59.51413134336334600000	     70.57219683768408900000	    -80.07919508080331600000	    -64.08203104752107000000	   -263.22982668738410000000	   -360.27410284994380000000	     -0.00000000000041871371	     -0.00000000000102294640	    -36.02834073148581200000	    125.75819485272045000000	     90.78019326508480400000	   -150.21176644890772000000	    -22.43311531797275600000	      0.00000000000004351723	     -0.00000000000028731503	     22.13745283393802100000	    -71.61315977852878200000	    -55.94330724741024600000
      0.56833000000000033000	      1.81567681413944770000	      0.70089599228045585000	     -0.18353575108223993000	     -3.83567664446448250000	      2.63151895080828660000	     -2.00576313944169420000	    -21.85232846378114900000	     -0.80508302961461597000	      0.45452258591202721000	    -16.01164111237747900000	     -8.42253962209223950000	     -0.00000000000014753903	     -0.00000000000030120632	     34.64759562853868900000	      2.86521320672973310000	     -7.14088099403620190000	    -16.95219970841589300000	     -8.46709697437052530000	     -0.00000000000001445178	     -0.00000000000000773475	     -1.65284885142105130000	     -7.15458497513172630000	     10.35874548426259300000	      1.60719499246217820000	      0.11157552091764919000	     -0.23158751210655149000	     -3.21527186961794210000	     61.36064231659003800000	     59.28901679377646900000	     71.59612457718920100000	    -80.44690791267252900000	    -63.24302511080319500000	   -264.67121064393558000000	   -360.87180260829911000000	     -0.00000000000041567522	     -0.00000000000106769516	    -36.79287659308030800000	    125.85772607234136000000	     91.22990469944849700000	   -149.60068107390808000000	    -20.53067917647775800000	      0.00000000000003719014	     -0.00000000000028950513	     21.56425430558996900000	    -71.31963917673633100000	    -56.04840484933571100000
      0.56883000000000028000	      1.81648011558943790000	      0.70095211956752179000	     -0.18365169761099331000	     -3.83722240544302860000	      2.66220201840238110000	     -1.97617684007651470000	    -21.81627289452439600000	     -0.84539687546822895000	      0.42311329855602747000	    -16.14433636319401100000	     -8.60311539543699060000	     -0.00000000000014774534	     -0.00000000000030174428	     34.62900863439885800000	      2.92816373513314470000	     -7.09515611804819810000	    -17.02684618169929800000	     -8.47688526515224260000	     -0.00000000000001443142	     -0.00000000000000788341	     -1.64220879137410770000	     -7.19016956193853570000	     10.33069685778000500000	      1.60600794996145790000	      0.11293165650028437000	     -0.23219502422518593000	     -2.96858519600856270000	     61.37033322853542900000	     59.05455470335113000000	     72.62740337192572300000	    -80.80726142001165600000	    -62.39233576722432400000	   -266.10917122776192000000	   -361.42502079929756000000	     -0.00000000000041863455	     -0.00000000000106722320	    -37.55471446845416500000	    125.94172939251102000000	     91.66754706946235800000	   -148.98398431954206000000	    -18.62175040210657100000	      0.00000000000002588303	     -0.00000000000031989040	     20.99701336617183500000	    -71.01720617920833000000	    -56.14451250548310000000
      0.56933000000000034000	      1.81728281921277170000	      0.70100892197661691000	     -0.18376794259207685000	     -3.83864605274454050000	      2.69288799405888350000	     -1.94671012944593300000	    -21.77969982869599600000	     -0.88588902029813554000	      0.39213212859841540000	    -16.27774968389310900000	     -8.78395712373564660000	     -0.00000000000014795497	     -0.00000000000030227778	     34.61004138470971000000	      2.99115231792272370000	     -7.04921551375177470000	    -17.10118275029680400000	     -8.48571771439474180000	     -0.00000000000001441647	     -0.00000000000000804987	     -1.63185080981769580000	     -7.22560068954644660000	     10.30260247792324300000	      1.60480365058160260000	      0.11427602846544645000	     -0.23278144757506244000	     -2.72683625789446980000	     61.37228295193949600000	     58.81082297161722700000	     73.66606993901884000000	    -81.15998902823550100000	    -61.53037472052604100000	   -267.54353234174584000000	   -361.93311762444165000000	     -0.00000000000043086125	     -0.00000000000106040613	    -38.31372977295578200000	    126.01002159089312000000	     92.09278709795665900000	   -148.36163658759534000000	    -16.70674570198518800000	      0.00000000000002580791	     -0.00000000000035457655	     20.43594159434387300000	    -70.70582148153862100000	    -56.23158129856605600000
      0.56983000000000028000	      1.81808491634020400000	      0.70106639368573631000	     -0.18388447550956638000	     -3.83995009120407360000	      2.72357299415735190000	     -1.91736753870029040000	    -21.74260558358758600000	     -0.92655555289950819000	      0.36158472000094033000	    -16.41187926928001400000	     -8.96504091144884010000	     -0.00000000000014816586	     -0.00000000000030281653	     34.59069540414584800000	      3.05417111852601940000	     -7.00306544521856810000	    -17.17520685384876000000	     -8.49359115609099470000	     -0.00000000000001439765	     -0.00000000000000822851	     -1.62177178484678050000	     -7.26087389259132630000	     10.27446677990278600000	      1.60358195518773570000	      0.11560893691978405000	     -0.23334657487150118000	     -2.49018391613098530000	     61.36638865895395200000	     58.55796028355270300000	     74.71218065086336000000	    -81.50484664297769700000	    -60.65763556941276100000	   -268.97413293164277000000	   -362.39560180019913000000	     -0.00000000000040123770	     -0.00000000000112661802	    -39.06974843887422100000	    126.06248298542307000000	     92.50533967012283700000	   -147.73350624770924000000	    -14.78659737104819200000	      0.00000000000004685210	     -0.00000000000033975520	     19.88125975762477500000	    -70.38549116065701100000	    -56.30962767176865900000
      0.57033000000000034000	      1.81888639825222610000	      0.70112452905241418000	     -0.18400128557575482000	     -3.84113710824852420000	      2.75425305313709860000	     -1.88815367627793430000	    -21.70498640197718000000	     -0.96739251242222268000	      0.33147621776604691000	    -16.54672316148674600000	     -9.14634502003604940000	     -0.00000000000014836506	     -0.00000000000030337417	     34.57097215577974200000	      3.11721213433912900000	     -6.95671234222463400000	    -17.24891528533799300000	     -8.50050352776595910000	     -0.00000000000001436905	     -0.00000000000000839906	     -1.61196845137665060000	     -7.29598468467237100000	     10.24629435999072100000	      1.60234276838564460000	      0.11693067707919452000	     -0.23389015258923970000	     -2.25876031181358390000	     61.35251559088074900000	     58.29605350874157200000	     75.76576526795467700000	    -81.84157566908801600000	    -59.77454704076296800000	   -270.40080037679581000000	   -362.81184605484157000000	     -0.00000000000040145261	     -0.00000000000107492835	    -39.82265138036914500000	    126.09894307697625000000	     92.90488162257571500000	   -147.09955209809021000000	    -12.86173225343397800000	      0.00000000000007433412	     -0.00000000000034255271	     19.33316976251876400000	    -70.05618354273904900000	    -56.37861375277756800000
